<?xml version="1.0" standalone="no"?><!DOCTYPE svg PUBLIC "-//W3C//DTD SVG 1.1//EN" "http://www.w3.org/Graphics/SVG/1.1/DTD/svg11.dtd"><svg t="1537341240449" class="icon" style="" viewBox="0 0 1105 1024" version="1.1" xmlns="http://www.w3.org/2000/svg" p-id="13645" xmlns:xlink="http://www.w3.org/1999/xlink" width="215.8203125" height="200"><defs><style type="text/css"></style></defs><path d="M742.033094 853.638961 29.697369 853.638961c16.85283-134.87278 113.806999-248.673639 236.041948-290.831808-67.444065-37.938054-113.801882-113.800859-113.801882-198.10287 0-126.446877 105.369839-231.821833 231.822856-231.821833 126.44483 0 231.819786 105.374956 231.819786 231.821833 0 84.300988-46.362934 160.164816-113.799836 198.10287C628.226095 604.965322 720.962196 718.766181 742.033094 853.638961L742.033094 853.638961z" p-id="13646"></path><path d="M1104.529081 714.553229" p-id="13647"></path><path d="M960.562179 445.671339l-94.963839 0 0-94.955652c0-17.496489-14.182001-31.676443-31.677467-31.676443l-31.818683 0c-17.496489 0-31.67849 14.179954-31.67849 31.676443l0 94.955652-94.955652 0c-17.495466 0-31.67542 14.179954-31.67542 31.676443l0 31.818683c0 17.496489 14.179954 31.676443 31.67542 31.676443l94.955652 0 0 94.962815c0 17.497513 14.182001 31.676443 31.67849 31.676443l31.818683 0c17.495466 0 31.677467-14.178931 31.677467-31.676443l0-94.962815 94.963839 0c17.495466 0 31.674397-14.179954 31.674397-31.676443l0-31.818683C992.236576 459.851293 978.057645 445.671339 960.562179 445.671339z" p-id="13648"></path></svg>