<?xml version="1.0" standalone="no"?><!DOCTYPE svg PUBLIC "-//W3C//DTD SVG 1.1//EN" "http://www.w3.org/Graphics/SVG/1.1/DTD/svg11.dtd"><svg t="1537344731495" class="icon" style="" viewBox="0 0 1024 1024" version="1.1" xmlns="http://www.w3.org/2000/svg" p-id="15108" xmlns:xlink="http://www.w3.org/1999/xlink" width="200" height="200"><defs><style type="text/css"></style></defs><path d="M132.977778 1009.777778A61.866667 61.866667 0 0 1 71.111111 947.911111V128h881.777778v819.911111A61.866667 61.866667 0 0 1 891.022222 1009.777778z" fill="#F79292" p-id="15109"></path><path d="M938.666667 142.222222v805.688889A47.644444 47.644444 0 0 1 891.022222 995.555556H132.977778A47.644444 47.644444 0 0 1 85.333333 947.911111V142.222222h853.333334m28.444444-28.444444H56.888889v834.133333A76.231111 76.231111 0 0 0 132.977778 1024h758.044444A76.231111 76.231111 0 0 0 967.111111 947.911111V113.777778z" fill="#333333" p-id="15110"></path><path d="M71.111111 128a56.888889 56.888889 0 0 1 0-113.777778h881.777778a56.888889 56.888889 0 1 1 0 113.777778z" fill="#FFFFFF" p-id="15111"></path><path d="M952.888889 28.444444a42.666667 42.666667 0 0 1 0 85.333334H71.111111a42.666667 42.666667 0 0 1 0-85.333334h881.777778m0-28.444444H71.111111a71.111111 71.111111 0 0 0 0 142.222222h881.777778a71.111111 71.111111 0 0 0 0-142.222222z" fill="#333333" p-id="15112"></path><path d="M174.506667 237.937778h682.666666v284.444444h-682.666666zM174.506667 607.715556h682.666666v284.444444h-682.666666z" fill="#FFFFFF" p-id="15113"></path><path d="M494.791111 381.155556m-42.666667 0a42.666667 42.666667 0 1 0 85.333334 0 42.666667 42.666667 0 1 0-85.333334 0Z" fill="#77EDB7" p-id="15114"></path><path d="M494.791111 352.568889a28.444444 28.444444 0 1 1-28.444444 28.444444 28.444444 28.444444 0 0 1 28.444444-28.444444m0-28.444445a56.888889 56.888889 0 1 0 56.888889 56.888889 56.888889 56.888889 0 0 0-56.888889-56.888889z" fill="#333333" p-id="15115"></path><path d="M494.791111 749.937778m-42.666667 0a42.666667 42.666667 0 1 0 85.333334 0 42.666667 42.666667 0 1 0-85.333334 0Z" fill="#77EDB7" p-id="15116"></path><path d="M494.791111 721.493333a28.444444 28.444444 0 1 1-28.444444 28.444445 28.444444 28.444444 0 0 1 28.444444-28.444445m0-28.444444a56.888889 56.888889 0 1 0 56.888889 56.888889 56.888889 56.888889 0 0 0-56.888889-56.888889z" fill="#333333" p-id="15117"></path></svg>