<?xml version="1.0" standalone="no"?><!DOCTYPE svg PUBLIC "-//W3C//DTD SVG 1.1//EN" "http://www.w3.org/Graphics/SVG/1.1/DTD/svg11.dtd"><svg t="1537348112111" class="icon" style="" viewBox="0 0 1194 1024" version="1.1" xmlns="http://www.w3.org/2000/svg" p-id="28105" xmlns:xlink="http://www.w3.org/1999/xlink" width="233.203125" height="200"><defs><style type="text/css"></style></defs><path d="M0 0h1194.666667v853.333333H0z" fill="#ED1DAD" p-id="28106"></path><path d="M91.384242 65.318788H1103.127273v722.695757H91.384242z" fill="#FFFFFF" p-id="28107"></path><path d="M288.73697 928.581818m17.532121 0l575.922424 0q17.532121 0 17.532121 17.532121l0 60.35394q0 17.532121-17.532121 17.532121l-575.922424 0q-17.532121 0-17.532121-17.532121l0-60.35394q0-17.532121 17.532121-17.532121Z" fill="#5284F2" p-id="28108"></path><path d="M227.762424 456.300606h53.837576v331.713939h-53.837576zM364.140606 252.121212h102.555152v535.893333h-102.555152zM870.710303 252.276364h102.555152V788.169697h-102.555152zM536.824242 443.267879h101.624243v344.746666H536.824242zM711.524848 671.650909h77.886061v116.518788h-77.886061z" fill="#326DD2" p-id="28109"></path></svg>