<?xml version="1.0" standalone="no"?><!DOCTYPE svg PUBLIC "-//W3C//DTD SVG 1.1//EN" "http://www.w3.org/Graphics/SVG/1.1/DTD/svg11.dtd"><svg t="1537337091126" class="icon" style="" viewBox="0 0 1092 1024" version="1.1" xmlns="http://www.w3.org/2000/svg" p-id="2672" xmlns:xlink="http://www.w3.org/1999/xlink" width="213.28125" height="200"><defs><style type="text/css"></style></defs><path d="M34.133333 34.133333m136.533334 0l0 0q136.533333 0 136.533333 136.533334l0 682.666666q0 136.533333-136.533333 136.533334l0 0q-136.533333 0-136.533334-136.533334l0-682.666666q0-136.533333 136.533334-136.533334Z" fill="#FFCDD2" p-id="2673"></path><path d="M238.933333 1024h-68.266666A170.666667 170.666667 0 0 1 0 853.333333v-682.666666A170.666667 170.666667 0 0 1 170.666667 0h68.266666A170.666667 170.666667 0 0 1 409.6 170.666667v682.666666A170.666667 170.666667 0 0 1 238.933333 1024z m-68.266666-955.733333A102.4 102.4 0 0 0 68.266667 170.666667v682.666666A102.4 102.4 0 0 0 170.666667 955.733333h68.266666A102.4 102.4 0 0 0 341.333333 853.333333v-682.666666A102.4 102.4 0 0 0 238.933333 68.266667z" fill="#212121" p-id="2674"></path><path d="M341.333333 34.133333m136.533334 0l375.466666 0q136.533333 0 136.533334 136.533334l0 682.666666q0 136.533333-136.533334 136.533334l-375.466666 0q-136.533333 0-136.533334-136.533334l0-682.666666q0-136.533333 136.533334-136.533334Z" fill="#FFCDD2" p-id="2675"></path><path d="M921.6 1024h-409.6A170.666667 170.666667 0 0 1 341.333333 853.333333v-682.666666A170.666667 170.666667 0 0 1 512 0h409.6A170.666667 170.666667 0 0 1 1092.266667 170.666667v682.666666a170.666667 170.666667 0 0 1-170.666667 170.666667z m-409.6-955.733333A102.4 102.4 0 0 0 409.6 170.666667v682.666666A102.4 102.4 0 0 0 512 955.733333h409.6a102.4 102.4 0 0 0 102.4-102.4v-682.666666A102.4 102.4 0 0 0 921.6 68.266667z" fill="#212121" p-id="2676"></path><path d="M512 204.8m51.2 0l307.2 0q51.2 0 51.2 51.2l0 68.266667q0 51.2-51.2 51.2l-307.2 0q-51.2 0-51.2-51.2l0-68.266667q0-51.2 51.2-51.2Z" fill="#212121" p-id="2677"></path><path d="M580.266667 512m-34.133334 0a34.133333 34.133333 0 1 0 68.266667 0 34.133333 34.133333 0 1 0-68.266667 0Z" fill="#212121" p-id="2678"></path><path d="M716.8 512m-34.133333 0a34.133333 34.133333 0 1 0 68.266666 0 34.133333 34.133333 0 1 0-68.266666 0Z" fill="#212121" p-id="2679"></path><path d="M853.333333 512m-34.133333 0a34.133333 34.133333 0 1 0 68.266667 0 34.133333 34.133333 0 1 0-68.266667 0Z" fill="#212121" p-id="2680"></path><path d="M580.266667 648.533333m-34.133334 0a34.133333 34.133333 0 1 0 68.266667 0 34.133333 34.133333 0 1 0-68.266667 0Z" fill="#212121" p-id="2681"></path><path d="M716.8 648.533333m-34.133333 0a34.133333 34.133333 0 1 0 68.266666 0 34.133333 34.133333 0 1 0-68.266666 0Z" fill="#212121" p-id="2682"></path><path d="M853.333333 648.533333m-34.133333 0a34.133333 34.133333 0 1 0 68.266667 0 34.133333 34.133333 0 1 0-68.266667 0Z" fill="#212121" p-id="2683"></path><path d="M580.266667 785.066667m-34.133334 0a34.133333 34.133333 0 1 0 68.266667 0 34.133333 34.133333 0 1 0-68.266667 0Z" fill="#212121" p-id="2684"></path><path d="M716.8 785.066667m-34.133333 0a34.133333 34.133333 0 1 0 68.266666 0 34.133333 34.133333 0 1 0-68.266666 0Z" fill="#212121" p-id="2685"></path><path d="M853.333333 785.066667m-34.133333 0a34.133333 34.133333 0 1 0 68.266667 0 34.133333 34.133333 0 1 0-68.266667 0Z" fill="#212121" p-id="2686"></path></svg>