<?xml version="1.0" standalone="no"?><!DOCTYPE svg PUBLIC "-//W3C//DTD SVG 1.1//EN" "http://www.w3.org/Graphics/SVG/1.1/DTD/svg11.dtd"><svg t="1537340005002" class="icon" style="" viewBox="0 0 1024 1024" version="1.1" xmlns="http://www.w3.org/2000/svg" p-id="12272" xmlns:xlink="http://www.w3.org/1999/xlink" width="200" height="200"><defs><style type="text/css"></style></defs><path d="M870.35428531 570.56H153.64571469v-371.65714313c0-29.28 23.79428531-53.07428531 53.07428531-53.07428531h610.56c29.28 0 53.07428531 23.79428531 53.07428531 53.14285688v371.58857156z m0 106.14857156a53.07428531 53.07428531 0 0 1-53.07428531 53.14285688H206.72a53.07428531 53.07428531 0 0 1-53.07428531-53.14285688v-53.07428625h716.70857062v53.07428625zM472.16 889.14285688h106.21714313v-106.14857157H472.16v106.14857156zM817.28 92.75428531H206.72C148.09142844 92.75428531 100.57142844 140.34285687 100.57142844 198.97142844v477.73714312c0 58.69714313 47.52 106.21714313 106.14857156 106.21714313h212.36571469v106.14857062h-53.07428625a26.53714313 26.53714313 0 1 0 0 53.07428625h318.51428625a26.53714313 26.53714313 0 1 0 0-53.07428625h-53.07428625v-106.14857062h185.82857156c58.62857156 0 106.14857156-47.52 106.14857156-106.21714313V198.97142844c0-58.62857156-47.52-106.21714313-106.14857156-106.21714313z" p-id="12273"></path></svg>