<?xml version="1.0" standalone="no"?><!DOCTYPE svg PUBLIC "-//W3C//DTD SVG 1.1//EN" "http://www.w3.org/Graphics/SVG/1.1/DTD/svg11.dtd"><svg t="1537323139468" class="icon" style="" viewBox="0 0 1024 1024" version="1.1" xmlns="http://www.w3.org/2000/svg" p-id="7334" xmlns:xlink="http://www.w3.org/1999/xlink" width="200" height="200"><defs><style type="text/css"></style></defs><path d="M927.573 492.373c0 231.254-194.56 418.134-435.2 418.134s-435.2-186.88-435.2-418.134S251.733 74.24 492.373 74.24c240.64-0.853 435.2 186.88 435.2 418.133" fill="#FFE04A" p-id="7335"></path><path d="M492.373 922.453c-246.613 0-448-192.853-448-430.933s200.534-430.08 448-430.08 448 192.853 448 430.933-201.386 430.08-448 430.08z m0-836.266c-232.96 0-423.253 181.76-423.253 405.333s189.44 405.333 423.253 405.333 423.254-181.76 423.254-405.333S725.333 86.187 492.373 86.187z" fill="#545971" p-id="7336"></path><path d="M492.373 778.24c-179.2 0-334.506-57.173-408.746-180.053 51.2 174.933 214.186 302.933 408.746 302.933s357.547-128 408.747-302.933C826.88 721.92 671.573 778.24 492.373 778.24" fill="#FFD05A" p-id="7337"></path><path d="M492.373 704c-114.346 0-164.693-89.6-174.08-107.52a18.074 18.074 0 0 1 0-16.213c4.267-7.68 14.507-11.094 23.04-5.974 2.56 1.707 5.974 5.12 6.827 7.68 10.24 21.334 51.2 89.6 144.213 89.6 92.16 0 133.12-68.266 144.214-88.746 0.853-1.707 2.56-5.12 6.826-7.68 7.68-4.267 17.92-1.707 23.04 5.973 3.414 5.12 2.56 11.947 0 16.213C652.8 622.08 603.307 704 492.373 704z m232.96-341.333c-9.386 0-17.066-7.68-17.066-17.067 0-27.307-26.454-61.44-56.32-61.44s-56.32 34.133-56.32 61.44c0 9.387-7.68 17.067-17.067 17.067s-17.067-7.68-17.067-17.067c0-44.373 39.254-94.72 89.6-94.72s89.6 51.2 89.6 94.72c0.854 9.387-6.826 17.067-15.36 17.067z m-319.146 0c-9.387 0-17.067-7.68-17.067-17.067 0-27.307-26.453-61.44-56.32-61.44s-56.32 34.133-56.32 61.44c0 9.387-7.68 17.067-17.067 17.067s-17.066-7.68-17.066-17.067c0-44.373 39.253-94.72 89.6-94.72s89.6 51.2 89.6 94.72c0.853 9.387-5.974 17.067-15.36 17.067z" fill="#545971" p-id="7338"></path><path d="M287.573 452.267c0 38.4-32.426 69.973-72.533 69.973s-72.533-31.573-72.533-69.973 32.426-69.974 72.533-69.974 72.533 31.574 72.533 69.974M842.24 452.267c0 38.4-32.427 69.973-72.533 69.973s-72.534-31.573-72.534-69.973 32.427-69.974 72.534-69.974 72.533 31.574 72.533 69.974" fill="#FCBD83" p-id="7339"></path></svg>