<?xml version="1.0" standalone="no"?><!DOCTYPE svg PUBLIC "-//W3C//DTD SVG 1.1//EN" "http://www.w3.org/Graphics/SVG/1.1/DTD/svg11.dtd"><svg t="1537340380974" class="icon" style="" viewBox="0 0 1024 1024" version="1.1" xmlns="http://www.w3.org/2000/svg" p-id="12957" xmlns:xlink="http://www.w3.org/1999/xlink" width="200" height="200"><defs><style type="text/css"></style></defs><path d="M627.9 488.2H368.4V334.9c0-60.9 49.6-110.5 110.5-110.5h38.5c60.9 0 110.5 49.6 110.5 110.5v153.3z m-239.5-20h219.5V334.9c0-49.9-40.6-90.5-90.5-90.5h-38.5c-49.9 0-90.5 40.6-90.5 90.5v133.3zM611.9 830.5h-229V705.4h229v125.1z m-209-20h189v-85.1h-189v85.1z" fill="" p-id="12958"></path><path d="M611.7 969.8h-96.4V810.1h96.4v159.7z m-76.4-20h56.4V830.1h-56.4v119.7zM479.7 1008.7h-52.9l-43.5-103.2v-95.4h96.4v198.6z m-39.6-20h19.7V830.1h-56.4v71.4l36.7 87.2zM766.1 653.8H229.2V470.3h536.9v183.5z m-516.9-20h496.9V490.3H249.2v143.5zM767.2 304.7H645.8v-16.3c0-52.6-51.9-95.4-115.6-95.4h-60.7c-63.7 0-115.6 42.8-115.6 95.4v16.3H232.5v-46.5C232.5 160 326.9 80 443 80h113.6c116.1 0 210.5 80 210.5 178.2v46.5z m-101.5-20h81.4v-26.5c0-87.3-85.5-158.2-190.5-158.2H443c-105.1 0-190.5 71-190.5 158.2v26.5h81.4c2.3-61.9 62.2-111.7 135.5-111.7h60.7c73.4 0 133.3 49.8 135.6 111.7zM259.2 315.8h73.5v20h-73.5zM259.2 353.4h73.5v20h-73.5zM259.2 391.1h73.5v20h-73.5zM259.2 428.7h73.5v20h-73.5zM672.5 315.8H746v20h-73.5zM672.5 353.4H746v20h-73.5zM672.5 391.1H746v20h-73.5zM672.5 428.7H746v20h-73.5z" fill="" p-id="12959"></path><path d="M607.1 728.6H384.7l-72.4-92.9H681l-73.9 92.9z m-212.7-20h203.1l42-52.9H353.2l41.2 52.9zM564.9 85.6h-20c0-22.4-22.5-40.6-50.3-40.6-27.7 0-50.3 18.2-50.3 40.6h-20c0-33.4 31.5-60.6 70.3-60.6s70.3 27.2 70.3 60.6z" fill="" p-id="12960"></path></svg>